<svg width="21" height="21" viewBox="0 0 21 21" fill="none" xmlns="http://www.w3.org/2000/svg">
<path d="M13.1193 18.3671V11.3701C13.1193 11.1381 13.0272 10.9157 12.8631 10.7516C12.6991 10.5876 12.4767 10.4955 12.2447 10.4955H8.7462C8.51424 10.4955 8.29178 10.5876 8.12775 10.7516C7.96373 10.9157 7.87158 11.1381 7.87158 11.3701V18.3671" stroke="white" stroke-width="1.74924" stroke-linecap="round" stroke-linejoin="round"/>
<path d="M2.62378 8.74622C2.62372 8.49177 2.67917 8.24036 2.78627 8.00954C2.89337 7.77873 3.04954 7.57405 3.24389 7.4098L9.36624 2.16207C9.68197 1.89523 10.082 1.74883 10.4954 1.74883C10.9088 1.74883 11.3088 1.89523 11.6245 2.16207L17.7469 7.4098C17.9412 7.57405 18.0974 7.77873 18.2045 8.00954C18.3116 8.24036 18.367 8.49177 18.367 8.74622V16.6178C18.367 17.0818 18.1827 17.5267 17.8546 17.8547C17.5266 18.1828 17.0817 18.3671 16.6177 18.3671H4.37302C3.9091 18.3671 3.46417 18.1828 3.13612 17.8547C2.80807 17.5267 2.62378 17.0818 2.62378 16.6178V8.74622Z" stroke="white" stroke-width="1.74924" stroke-linecap="round" stroke-linejoin="round"/>
</svg>
